<svg width="51" height="26" viewBox="0 0 51 26" fill="none" xmlns="http://www.w3.org/2000/svg">
<path d="M0.504992 12.964C0.504992 10.6067 0.992326 8.51 1.96699 6.674C2.96433 4.81533 4.36966 3.376 6.18299 2.356C7.99633 1.31333 10.0817 0.792 12.439 0.792C15.431 0.792 17.947 1.59667 19.987 3.206C22.027 4.79267 23.3417 6.95733 23.931 9.7H16.757C16.3263 8.79333 15.7257 8.102 14.955 7.626C14.207 7.15 13.3343 6.912 12.337 6.912C10.7957 6.912 9.56033 7.46733 8.63099 8.578C7.72433 9.666 7.27099 11.128 7.27099 12.964C7.27099 14.8227 7.72433 16.3073 8.63099 17.418C9.56033 18.506 10.7957 19.05 12.337 19.05C13.3343 19.05 14.207 18.812 14.955 18.336C15.7257 17.86 16.3263 17.1687 16.757 16.262H23.931C23.3417 19.0047 22.027 21.1807 19.987 22.79C17.947 24.3767 15.431 25.17 12.439 25.17C10.0817 25.17 7.99633 24.66 6.18299 23.64C4.36966 22.5973 2.96433 21.158 1.96699 19.322C0.992326 17.4633 0.504992 15.344 0.504992 12.964ZM50.4106 1.03L42.1486 25H33.6146L25.3186 1.03H32.4586L37.8986 18.336L43.3046 1.03H50.4106Z" fill="#1B1B1B"/>
</svg>
