<svg width="45" height="44" viewBox="0 0 45 44" fill="none" xmlns="http://www.w3.org/2000/svg">
<path d="M22.5014 0.00140971C10.0708 0.00140971 0 10.1049 0 22.557C0 32.528 6.44665 40.9793 15.3811 43.9609C16.5104 44.1738 16.9182 43.476 16.9182 42.8726C16.9182 42.3369 16.9056 40.9201 16.8972 39.0395C10.6347 40.3985 9.31558 36.0072 9.31558 36.0072C8.29036 33.4077 6.81089 32.7099 6.81089 32.7099C4.77452 31.3157 6.97262 31.3453 6.97262 31.3453C9.22839 31.4989 10.4153 33.6643 10.4153 33.6643C12.4222 37.1153 15.6807 36.1172 16.9703 35.5364C17.1672 34.083 17.7536 33.0835 18.3921 32.5266C13.3968 31.9613 8.1441 30.0229 8.1441 21.3799C8.1441 18.9115 9.01603 16.9012 10.4575 15.3223C10.2086 14.757 9.44637 12.4592 10.6558 9.35212C10.6558 9.35212 12.5389 8.75017 16.8437 11.6655C18.6452 11.165 20.5578 10.9155 22.4691 10.9028C24.3817 10.9155 26.2929 11.1664 28.0944 11.6655C32.3739 8.75017 34.2556 9.35212 34.2556 9.35212C35.4636 12.4592 34.7014 14.7556 34.482 15.3223C35.9094 16.9012 36.7814 18.9129 36.7814 21.3799C36.7814 30.0427 31.5217 31.9529 26.5207 32.5041C27.3026 33.1793 28.0353 34.5679 28.0353 36.6754C28.0353 39.6922 28.0072 42.1226 28.0072 42.8571C28.0072 43.4435 28.401 44.1484 29.5598 43.9214C38.5604 40.9709 45 32.5125 45 22.5556C45 10.1035 34.9292 0 22.4986 0L22.5014 0.00140971Z" fill="black"/>
</svg>
