<svg width="40" height="37" viewBox="0 0 40 37" fill="none" xmlns="http://www.w3.org/2000/svg">
<path d="M5.21739 0C2.2 0 0.00849185 1.7897 0.00849185 4.25119C0.00849185 6.72129 2.25217 8.5898 5.21739 8.5898C8.23478 8.5898 10.4263 6.76553 10.4263 4.20076C10.2872 1.73067 8.13913 0 5.21739 0ZM0.869565 10.3195C0.391304 10.3195 0 10.7068 0 11.1802V36.1393C0 36.6127 0.391304 37 0.869565 37H9.56522C10.0435 37 10.4348 36.6127 10.4348 36.1393V11.1802C10.4348 10.7068 10.0435 10.3195 9.56522 10.3195H0.869565ZM13.913 10.3195C13.4348 10.3195 13.0435 10.7068 13.0435 11.1802V36.1393C13.0435 36.6127 13.4348 37 13.913 37H21.7391C22.2191 37 22.6087 36.6144 22.6087 36.1393V23.2294V23.0143V22.7991C22.6087 20.7593 24.1918 19.0979 26.2092 18.9429C26.3136 18.9257 26.4174 18.9261 26.5217 18.9261C26.6261 18.9261 26.7299 18.9257 26.8342 18.9429C28.8516 19.0979 30.4348 20.7593 30.4348 22.7991V36.1393C30.4348 36.6144 30.8243 37 31.3043 37H39.1304C39.6087 37 40 36.6127 40 36.1393V21.5081C40 15.9396 36.9818 10.3195 30.2514 10.3195C27.1905 10.3195 24.8783 11.4902 23.4783 12.4628V11.1802C23.4783 10.7068 23.087 10.3195 22.6087 10.3195H13.913Z" fill="#1B1B1B"/>
</svg>
