<svg width="40" height="34" viewBox="0 0 40 34" fill="none" xmlns="http://www.w3.org/2000/svg">
<path d="M39.0936 3.92387C38.4653 4.21319 37.8192 4.45741 37.159 4.65572C37.9406 3.73805 38.5364 2.65833 38.9002 1.47683C38.9817 1.21201 38.8972 0.922124 38.6875 0.748876C38.4781 0.575547 38.1871 0.554783 37.9566 0.696642C36.5546 1.55988 35.0421 2.18028 33.4562 2.543C31.8586 0.922367 29.6889 0 27.4457 0C22.7109 0 18.8588 3.99914 18.8588 8.91465C18.8588 9.30178 18.8824 9.6868 18.9291 10.0665C13.0536 9.53091 7.59128 6.53273 3.84035 1.75584C3.70667 1.58559 3.50074 1.49378 3.28988 1.51138C3.07894 1.52849 2.88933 1.65202 2.78277 1.8419C2.02199 3.19714 1.6198 4.74721 1.6198 6.32436C1.6198 8.47244 2.35847 10.5105 3.66339 12.103C3.2666 11.9604 2.8816 11.7821 2.5141 11.5703C2.31683 11.4563 2.07605 11.4581 1.88003 11.5747C1.68394 11.6914 1.56097 11.9059 1.55574 12.1405C1.5548 12.18 1.5548 12.2195 1.5548 12.2596C1.5548 15.4659 3.21699 18.3526 5.75831 19.926C5.53995 19.9033 5.32183 19.8705 5.10503 19.8275C4.88152 19.7831 4.65175 19.8645 4.50105 20.0415C4.35011 20.2183 4.30011 20.4648 4.36972 20.6898C5.31035 23.7388 7.73214 25.9814 10.6599 26.6651C8.23159 28.2441 5.45472 29.0712 2.53964 29.0712C1.93136 29.0712 1.31964 29.0341 0.720971 28.9606C0.423549 28.9238 0.139174 29.1062 0.0378462 29.3998C-0.0634819 29.6936 0.0439399 30.0211 0.296909 30.1895C4.04183 32.6824 8.37198 34 12.8191 34C21.5615 34 27.0306 29.72 30.0789 26.1295C33.8803 21.6523 36.0603 15.7264 36.0603 9.87116C36.0603 9.62654 36.0567 9.37956 36.0495 9.13332C37.5492 7.96024 38.8404 6.54052 39.8911 4.90877C40.0507 4.66099 40.0335 4.33339 39.8485 4.10531C39.6641 3.87683 39.3563 3.80302 39.0936 3.92387Z" fill="#1B1B1B"/>
</svg>
